<svg width="20" height="20" viewBox="0 0 20 20" fill="none" xmlns="http://www.w3.org/2000/svg">
<path fill-rule="evenodd" clip-rule="evenodd" d="M3.33334 6.66667C2.8731 6.66667 2.5 7.03976 2.5 7.5V15.8333C2.5 16.2936 2.8731 16.6667 3.33334 16.6667H16.6667C17.1269 16.6667 17.5 16.2936 17.5 15.8333V7.5C17.5 7.03976 17.1269 6.66667 16.6667 6.66667H3.33334ZM0.833336 7.5C0.833336 6.11929 1.95262 5 3.33334 5H16.6667C18.0474 5 19.1667 6.11929 19.1667 7.5V15.8333C19.1667 17.214 18.0474 18.3333 16.6667 18.3333H3.33334C1.95262 18.3333 0.833336 17.214 0.833336 15.8333V7.5Z" fill="#1565D8"/>
<path fill-rule="evenodd" clip-rule="evenodd" d="M6.56557 2.3989C7.03441 1.93006 7.67029 1.66667 8.33334 1.66667H11.6667C12.3297 1.66667 12.9656 1.93006 13.4344 2.3989C13.9033 2.86774 14.1667 3.50363 14.1667 4.16667V17.5C14.1667 17.9602 13.7936 18.3333 13.3333 18.3333C12.8731 18.3333 12.5 17.9602 12.5 17.5V4.16667C12.5 3.94565 12.4122 3.73369 12.2559 3.57741C12.0996 3.42113 11.8877 3.33333 11.6667 3.33333H8.33334C8.11232 3.33333 7.90036 3.42113 7.74408 3.57741C7.5878 3.73369 7.5 3.94565 7.5 4.16667V17.5C7.5 17.9602 7.12691 18.3333 6.66667 18.3333C6.20643 18.3333 5.83334 17.9602 5.83334 17.5V4.16667C5.83334 3.50363 6.09673 2.86774 6.56557 2.3989Z" fill="#1565D8"/>
</svg>
