<svg width="20" height="20" viewBox="0 0 20 20" fill="none" xmlns="http://www.w3.org/2000/svg">
<g clip-path="url(#clip0_49_172)">
<path fill-rule="evenodd" clip-rule="evenodd" d="M0.833344 10C0.833344 4.93739 4.9374 0.833336 10 0.833336C15.0626 0.833336 19.1667 4.93739 19.1667 10C19.1667 15.0626 15.0626 19.1667 10 19.1667C4.9374 19.1667 0.833344 15.0626 0.833344 10Z" fill="#08AD36"/>
<path fill-rule="evenodd" clip-rule="evenodd" d="M14.4256 6.70245C14.751 7.02788 14.751 7.55552 14.4256 7.88096L9.25297 13.2976C8.92754 13.6231 8.3999 13.6231 8.07446 13.2976L5.57446 10.7976C5.24902 10.4722 5.24902 9.94455 5.57446 9.61911C5.8999 9.29368 6.42754 9.29368 6.75297 9.61911L8.66372 11.5299L13.2471 6.70245C13.5725 6.37701 14.1001 6.37701 14.4256 6.70245Z" fill="white"/>
</g>
<defs>
<clipPath id="clip0_49_172">
<rect width="20" height="20" fill="white"/>
</clipPath>
</defs>
</svg>
